# xmcd
#
# Track frame offsets: 
#        150
#        19410
#        38317
#        57476
#        70061
#        81879
#        97469
#        125413
#        149851
#        164638
#        182311
#        197588
#        219283
#
# Disc length: 3446 seconds
#
# Revision: 0
# Processed by: cddbd v1.5.2PL0 Copyright (c) Steve Scherf et al.
# Submitted via: ExactAudioCopyFreeDBPlugin 1.0
#
DISCID=be0d740d
DTITLE=Chase Garrett - Mrs. Blues
DYEAR=2008
DGENRE=Blues
TTITLE0=Chincy Boogie
TTITLE1=Gumby Shuffle
TTITLE2=Dumpster Stomp
TTITLE3=Mardi Gras For Big Chief
TTITLE4=Wish Me Well
TTITLE5=Creole Boogie
TTITLE6=Hootie Blues
TTITLE7=Night Train
TTITLE8=Swanee River
TTITLE9=Tribute To Pete
TTITLE10=Tore Down
TTITLE11=Flip, Flop, and Fly
TTITLE12=Mrs. Blues
EXTD=
EXTT0=
EXTT1=
EXTT2=
EXTT3=
EXTT4=
EXTT5=
EXTT6=
EXTT7=
EXTT8=
EXTT9=
EXTT10=
EXTT11=
EXTT12=
PLAYORDER=
